<svg width="19" height="17" viewBox="0 0 19 17" fill="none" xmlns="http://www.w3.org/2000/svg">
<path d="M7.2975 0L16.5 16.5L17.9955 13.116C18.1662 12.7744 18.2473 12.3951 18.2312 12.0136C18.215 11.6321 18.1022 11.2609 17.9032 10.935L12.072 1.077C11.8709 0.748192 11.5887 0.476503 11.2526 0.287933C10.9164 0.0993636 10.5374 0.000223579 10.152 0H7.2975ZM5.634 1.6335L1.2225 9.75H10.1595L5.634 1.6335ZM0 12L1.629 15.2565C1.8157 15.6302 2.10278 15.9444 2.45807 16.1641C2.81336 16.3837 3.2228 16.5 3.6405 16.5H13.9245L11.4157 12H0Z" fill="#333333"/>
</svg>
