<svg width="18" height="19" viewBox="0 0 18 19" fill="none" xmlns="http://www.w3.org/2000/svg">
<path d="M16.0714 0H1.92857C0.863839 0 0 0.91183 0 2.03571V16.9643C0 18.0882 0.863839 19 1.92857 19H16.0714C17.1362 19 18 18.0882 18 16.9643V2.03571C18 0.91183 17.1362 0 16.0714 0ZM11.1415 16.273C10.804 16.3366 10.6795 16.1161 10.6795 15.9337C10.6795 15.7047 10.6875 14.5342 10.6875 13.5884C10.6875 12.9268 10.4786 12.5069 10.2335 12.2864C11.7201 12.1125 13.2871 11.8962 13.2871 9.18616C13.2871 8.41429 13.0259 8.02835 12.6 7.53214C12.6683 7.34978 12.8973 6.59911 12.5317 5.62366C11.9732 5.44129 10.6955 6.38281 10.6955 6.38281C10.1652 6.22589 9.59062 6.14531 9.02411 6.14531C8.45759 6.14531 7.88304 6.22589 7.35268 6.38281C7.35268 6.38281 6.075 5.44129 5.51652 5.62366C5.15089 6.59487 5.37589 7.34554 5.44821 7.53214C5.02232 8.02835 4.82143 8.41429 4.82143 9.18616C4.82143 11.8835 6.32009 12.1125 7.8067 12.2864C7.61384 12.4688 7.44107 12.7826 7.3808 13.2321C6.99911 13.4145 6.02277 13.7283 5.44018 12.6426C5.07455 11.9725 4.41563 11.9174 4.41563 11.9174C3.76473 11.9089 4.37143 12.35 4.37143 12.35C4.80536 12.5621 5.11071 13.3763 5.11071 13.3763C5.50045 14.6359 7.36473 14.2118 7.36473 14.2118C7.36473 14.8013 7.37277 15.7598 7.37277 15.9337C7.37277 16.1161 7.25223 16.3366 6.91071 16.273C4.25893 15.3357 2.40268 12.6723 2.40268 9.55937C2.40268 5.66607 5.22321 2.71004 8.91161 2.71004C12.6 2.71004 15.5893 5.66607 15.5893 9.55937C15.5933 12.6723 13.7933 15.34 11.1415 16.273ZM7.2 13.6817C7.12366 13.6987 7.05134 13.6647 7.0433 13.6096C7.03527 13.546 7.0875 13.4908 7.16384 13.4739C7.24018 13.4654 7.3125 13.4993 7.32054 13.5545C7.33259 13.6096 7.28036 13.6647 7.2 13.6817ZM6.8183 13.6435C6.8183 13.6987 6.75804 13.7453 6.67768 13.7453C6.58929 13.7538 6.52902 13.7071 6.52902 13.6435C6.52902 13.5884 6.58929 13.5417 6.66964 13.5417C6.74598 13.5333 6.8183 13.5799 6.8183 13.6435ZM6.26786 13.5969C6.25179 13.652 6.17143 13.6775 6.10312 13.652C6.02679 13.635 5.97455 13.5714 5.99063 13.5163C6.0067 13.4612 6.08705 13.4357 6.15536 13.4527C6.23571 13.4781 6.28795 13.5417 6.26786 13.5969ZM5.77366 13.3679C5.7375 13.4145 5.66116 13.406 5.60089 13.3424C5.54062 13.2873 5.52455 13.2067 5.56473 13.1685C5.60089 13.1219 5.67723 13.1304 5.7375 13.194C5.78973 13.2491 5.80982 13.3339 5.77366 13.3679ZM5.40804 12.9819C5.37187 13.0074 5.30357 12.9819 5.25937 12.9183C5.21518 12.8547 5.21518 12.7826 5.25937 12.7529C5.30357 12.7147 5.37187 12.7444 5.40804 12.808C5.45223 12.8717 5.45223 12.948 5.40804 12.9819ZM5.14688 12.5705C5.11071 12.6087 5.05045 12.5875 5.00625 12.5451C4.96205 12.49 4.95402 12.4263 4.99018 12.3967C5.02634 12.3585 5.08661 12.3797 5.1308 12.4221C5.175 12.4772 5.18304 12.5408 5.14688 12.5705ZM4.87768 12.2567C4.86161 12.2949 4.80938 12.3033 4.76518 12.2737C4.71295 12.2482 4.68884 12.2016 4.70491 12.1634C4.72098 12.1379 4.76518 12.1252 4.81741 12.1464C4.86964 12.1761 4.89375 12.2228 4.87768 12.2567Z" fill="#333333"/>
</svg>
