<svg width="18" height="18" viewBox="0 0 18 18" fill="none" xmlns="http://www.w3.org/2000/svg">
<path d="M17.28 0H0.72C0.32175 0 0 0.32175 0 0.72V17.28C0 17.6783 0.32175 18 0.72 18H17.28C17.6783 18 18 17.6783 18 17.28V0.72C18 0.32175 17.6783 0 17.28 0ZM13.8443 6.51825C13.851 6.624 13.851 6.73425 13.851 6.84225C13.851 10.1453 11.3355 13.95 6.73875 13.95C5.32125 13.95 4.00725 13.5383 2.90025 12.8295C3.10275 12.852 3.29625 12.861 3.50325 12.861C4.67325 12.861 5.74875 12.465 6.606 11.7945C5.508 11.772 4.5855 11.052 4.2705 10.062C4.65525 10.1183 5.00175 10.1183 5.39775 10.017C4.83238 9.90214 4.32422 9.59509 3.95959 9.14801C3.59495 8.70094 3.39635 8.14142 3.3975 7.5645V7.533C3.72825 7.71975 4.1175 7.8345 4.52475 7.85025C4.1824 7.62209 3.90163 7.31297 3.70735 6.95032C3.51307 6.58766 3.41128 6.18267 3.411 5.77125C3.411 5.3055 3.5325 4.88025 3.75075 4.51125C4.37828 5.28376 5.16134 5.91557 6.04905 6.36562C6.93675 6.81568 7.90922 7.0739 8.90325 7.1235C8.55 5.42475 9.819 4.05 11.3445 4.05C12.0645 4.05 12.7125 4.3515 13.1693 4.8375C13.734 4.73175 14.274 4.52025 14.7555 4.23675C14.5688 4.815 14.1773 5.30325 13.6575 5.6115C14.1615 5.5575 14.6475 5.418 15.0975 5.22225C14.7578 5.72175 14.3325 6.165 13.8443 6.51825Z" fill="#333333"/>
</svg>
